TITLE "All Around the World"
PERFORMER "Oasis"
REM GENRE "Rock"
REM DATE "1997"
REM DISCID 2D057304
FILE "All Around the World.flac" WAVE
  TRACK 01 AUDIO
    TITLE "All Around The World"
    ISRC GBBQY9700014
    INDEX 01 00:00:00
  TRACK 02 AUDIO
    TITLE "The Fame"
    ISRC GBBQY9700024
    INDEX 01 09:38:62
  TRACK 03 AUDIO
    TITLE "Flashbax"
    ISRC GBBQY9700027
    INDEX 01 14:14:27
  TRACK 04 AUDIO
    TITLE "Street Fighting Man"
    ISRC GBBQY9700025
    INDEX 01 19:21:65
